<svg xmlns="http://www.w3.org/2000/svg" data-name="Layer 1" viewBox="0 0 750 750" id="youtube"><path d="M541,206.85H209a86.13,86.13,0,0,0-86,86V457.11a86.13,86.13,0,0,0,86,86H541a86.13,86.13,0,0,0,86-86V292.88A86.13,86.13,0,0,0,541,206.85Zm46,250.26a46.09,46.09,0,0,1-46,46H209a46.09,46.09,0,0,1-46-46V292.88a46.08,46.08,0,0,1,46-46H541a46.08,46.08,0,0,1,46,46Z"></path><path d="M428.26,357.68l-88.94-51.35a20,20,0,0,0-30,17.32v102.7a20,20,0,0,0,30,17.32l88.94-51.35a20,20,0,0,0,0-34.64Zm-78.94,34V358.29L378.26,375Z"></path></svg>